# xmcd
#
# Track frame offsets: 
#        150
#        19817
#        40862
#        62840
#        82958
#        106650
#        124858
#        137620
#        162028
#        180635
#        196077
#
# Disc length: 3167 seconds
#
# Revision: 0
# Processed by: cddbd v1.5.2PL0 Copyright (c) Steve Scherf et al.
# Submitted via: ExactAudioCopy v0.99pb5
#
DISCID=830c5d0b
DTITLE=Chick Willis - Hit and Run Blues (53 Years in the blues and Chick's
DTITLE=running faster than ever!)
DYEAR=2009
DGENRE=Blues
TTITLE0=Houdini lover
TTITLE1=Love to see you smile
TTITLE2=Stoop down low
TTITLE3=Soul of a man
TTITLE4=1,2,3,4,5 Shots of whiskey
TTITLE5=Millionaire
TTITLE6=Country lovin' man
TTITLE7=Looking for my baby
TTITLE8=Recess in heaven
TTITLE9=Today i started loving you again
TTITLE10=Blues man (Live)
EXTD=
EXTT0=
EXTT1=
EXTT2=
EXTT3=
EXTT4=
EXTT5=
EXTT6=
EXTT7=
EXTT8=
EXTT9=
EXTT10=
PLAYORDER=
